<?xml version="1.0" encoding="UTF-8"?>
<svg version="1.1" viewBox="0 0 2048 2048" width="192" height="192" xmlns="http://www.w3.org/2000/svg">
<path transform="translate(264)" d="m0 0h1522l36 10 27 9 24 10 23 12 20 13 15 11 14 12 16 15 11 12 9 10 13 18 17 28 13 28 10 27 8 27 5 21 1 3v1515l-13 47-10 28-8 18-8 16-10 17-14 20-13 16-12 13-10 10h-2v2l-8 7-16 12-21 14-18 10-16 8-19 8-22 8-29 8-19 4-1 1h-1513l-45-13-19-6-25-10-20-10-21-13-14-10-13-11-10-9-5-4v-2l-4-2-2-4h-2l-7-8-10-11-13-17-13-20-10-18-9-19-10-27-9-30-5-23v-1520l14-48 8-23 17-35 10-16 7-10 10-14 13-15 7-7 7-8 12-11 12-10 17-12 19-12 27-14 25-10 26-8 23-6z" fill="#FDB348"/>
<path transform="translate(764,202)" d="m0 0h18l21 2 23 6 26 10 17 8 20 12 19 14 10 9 8 7 10 10 9 11 8 10 10 15 16 31 6 15 4 16 1 13v1193l-4 34-7 31-5 18-8 22-12 25-11 18-11 14-9 11-11 12-10 10-13 10-16 11-20 12-16 8-21 9-20 7-18 5-18 3-10 1h-35l-18-2-18-4-25-7-28-11-19-9-13-8-8-5-12-8-7-6-9-7v-2l-4-2-9-9-7-8-10-11-20-30-8-14-9-19-3-10-33 2h-13l-24-1-25-5-20-6-18-6-21-9-23-12-15-9-13-9v-2l-4-2-12-11-19-19-10-13-12-19-14-26-11-27-9-27-5-19-5-23v-16l3-24 7-28 11-33v-5l-15-6-11-7-16-13-13-11-10-10-7-8-7-7-11-15-10-18-8-16-8-17-12-34-6-23-5-30v-15l2-20 3-16 9-29 9-24 6-15 9-17 10-14 13-18 8-10 11-13 11-11 8-7 6-5 11-7 2-2-1-7-11-22-12-36-4-16-4-19-1-8v-12l2-17 8-27 7-19 10-23 10-18 11-15 12-14 8-9 8-7 10-9 10-7 19-12 21-11 28-11 16-4v-9l-4-13-2-16v-16l4-20 8-26 10-23 12-24 13-20 9-11 11-12 13-13 17-13 20-12 23-11 27-9 21-5 21-2 15 1 24 4 20 6h6l9-12 11-13 9-11 15-16 13-12 17-13 14-10 22-12 26-10 20-6z" fill="#E55532"/>
<path transform="translate(1250,202)" d="m0 0h24l18 3 25 7 21 9 25 13 16 11 13 11 13 12 13 13 9 11 9 10 9 11 1 3 5 2 8-1 15-5 20-3h32l19 3 23 7 20 8 22 11 18 11 12 9 11 9 17 17 13 17 9 15 7 12 11 24 9 27 7 32 1 13-4 16-4 13-1 11 19 4 27 11 19 10 14 8 20 14 14 11 8 8 10 13 18 27 14 27 9 23 8 30 1 6v25l-5 25-7 28-7 19-3 7-4 9-4 8-4 11 5 2 8 5 10 7 32 32 10 13 8 12 9 13 9 16 9 20 10 32 6 27 3 19v29l-3 19-6 21-5 20-8 21-8 16-12 22-8 12-12 16-2 3h-2l-2 4-7 7-5 6-8 7-13 13-11 9-17 11-7 5 1 10 7 19 6 29 4 29v10l-3 19-8 34-5 17-13 32-8 16-22 33-12 14-16 16-11 9-12 9-19 12-21 12-23 11-30 10-20 4-24 2h-39l-15-1-5 7-8 16-13 23-11 16-14 18-12 14-8 8-13 10-15 11-28 17-28 14-33 11-16 4-26 3h-31l-24-3-27-7-16-5-28-11-16-8-9-6-10-6-14-9-15-14-7-6v-2h-2v-2h-2l-4-5-2-1v-2l-3-1-7-8-12-14-8-16-4-6-11-23-8-21-7-24-6-22-3-22-1-24v-1020l-1-159 2-22 4-12 12-27 11-20 12-18 10-13 15-16 15-15 14-11 14-10 11-7 19-9 25-9 19-5z" fill="#E55532"/>
<path transform="translate(764,202)" d="m0 0h18l21 2 23 6 26 10 17 8 20 12 19 14 10 9 8 7 10 10 9 11 8 10 10 15 16 31 6 15 4 16 1 13v1193l-4 34-7 31-5 18-8 22-12 25-11 18-11 14-9 11-11 12-10 10-13 10-16 11-20 12-16 8-21 9-20 7-18 5-18 3-10 1h-35l-18-2-18-4-25-7-28-11-19-9-13-8-8-5-12-8-7-6-9-7v-2l-4-2-9-9-7-8-10-11-20-30-8-14-9-19-3-10-33 2h-13l-24-1-25-5-20-6-18-6-21-9-23-12-15-9-13-9v-2l-4-2-12-11-19-19-10-13-12-19-14-26-11-27-9-27-5-19-5-23v-16l3-24 7-28 11-33v-5l-15-6-11-7-16-13-13-11-10-10-7-8-7-7-11-15-10-18-8-16-8-17-12-34-6-23-5-30v-15l2-20 3-16 9-29 9-24 6-15 9-17 10-14 13-18 8-10 11-13 11-11 8-7 6-5 11-7 2-2-1-7-11-22-12-36-4-16-4-19-1-8v-12l2-17 8-27 7-19 10-23 10-18 11-15 12-14 8-9 8-7 10-9 10-7 19-12 21-11 28-11 16-4v-9l-4-13-2-16v-16l4-20 8-26 10-23 12-24 13-20 9-11 11-12 13-13 17-13 20-12 23-11 27-9 21-5 21-2 15 1 24 4 20 6h6l9-12 11-13 9-11 15-16 13-12 17-13 14-10 22-12 26-10 20-6zm6 70-16 3-18 6-16 8-14 9-13 10-14 14-13 20-9 14-9 17-8 12-5 5-7 8-6 1-19-5-43-13-18-4h-24l-21 5-16 6-16 8-14 8-13 10-10 11-10 14-10 16-8 17-4 16-1 8v28l4 25 6 20 9 24 8 18 12 23 9 12 9 11 12 13 14 13 14 11 24 13 24 10 25 8 24 6 19 3h12l19-3 27-8 24-10 19-10 16-11 16-13 15-14 7-7 7-8 11-12 9-9 10-6 7-1 13 5 11 7 6 8 3 5-1 11-5 12-8 14-8 10-9 11-11 13-7 7-14 11-16 12-19 12-22 12-15 9-2 5 15 10 11 9 13 11 11 9 15 15 7 8 9 11 10 13 14 22 12 21 11 22 8 21 3 11-1 7-4 10-7 9-11 8-5 2h-11l-7-4-5-5-7-10-8-13-18-30-10-16-12-17-10-13-9-11-15-16-8-7-13-10-19-13-15-9-27-14-32-14-37-13-42-15-25-11-19-10-18-12-13-10-13-11-14-14-11-14-7-9-20-30-11-14-9-9-4-1-17 4-32 12-13 7-13 10-12 11-8 9-12 17-8 16-5 16-3 19v25l4 24 5 19 7 16 11 19 13 17 7 11 5 16-1 7-4 6-9 8-19 11-27 18-13 11-2 1v2l-4 2-20 20-10 14-12 22-8 16-5 16-2 15v41l3 24 5 22 12 35 8 16 6 10 9 12 14 14 14 10 22 13 29 15 20 8 5 3v9l-8 26-11 30-8 25-3 18v17l3 26 5 25 6 20 8 21 8 16 7 11 10 13 13 13 19 14 13 8 16 8 20 8 15 5 15 3h47l26-4 23-6 20-7 23-10 23-12 21-13 13-11 24-24 13-17 9-15 12-24 7-19 5-18 1-6v-25l-4-26-9-36-9-27-8-18-10-18-10-14-9-10-7-8-10-9-16-11-17-10-28-12-21-6-12-2-11-1-37-1-16-4-6-4-5-5-6-8-4-9v-10l7-10 13-8 16-6 13-2h21l35 5 26 7 26 9 29 13 18 10 16 11 10 8 8 7 11 14 13 17 12 18 12 21 9 19 9 24 8 26 8 36 2 11v20l-3 18-9 38-12 37-8 18-10 19-9 15-9 11-11 14-11 12-7 7-10 8-9 7-16 12-16 10-17 11-22 11-15 8-1 4 9 14 11 21 12 16 11 13 7 8 9 9 12 9 17 10 18 8 22 8 24 5h46l27-5 15-4 18-6 25-12 14-10 10-9 6-5 7-8 11-15 13-23 9-21 9-29 4-23 1-13 1-26-1-1101-1-61-2-26-3-16-5-12-6-11-11-15-11-12-17-13-14-9-17-9-16-6-17-4-10-1z" fill="#0A2647"/>
<path transform="translate(1250,202)" d="m0 0h24l18 3 25 7 21 9 25 13 16 11 13 11 13 12 13 13 9 11 9 10 9 11 1 3 5 2 8-1 15-5 20-3h32l19 3 23 7 20 8 22 11 18 11 12 9 11 9 17 17 13 17 9 15 7 12 11 24 9 27 7 32 1 13-4 16-4 13-1 11 19 4 27 11 19 10 14 8 20 14 14 11 8 8 10 13 18 27 14 27 9 23 8 30 1 6v25l-5 25-7 28-7 19-3 7-4 9-4 8-4 11 5 2 8 5 10 7 32 32 10 13 8 12 9 13 9 16 9 20 10 32 6 27 3 19v29l-3 19-6 21-5 20-8 21-8 16-12 22-8 12-12 16-2 3h-2l-2 4-7 7-5 6-8 7-13 13-11 9-17 11-7 5 1 10 7 19 6 29 4 29v10l-3 19-8 34-5 17-13 32-8 16-22 33-12 14-16 16-11 9-12 9-19 12-21 12-23 11-30 10-20 4-24 2h-39l-15-1-5 7-8 16-13 23-11 16-14 18-12 14-8 8-13 10-15 11-28 17-28 14-33 11-16 4-26 3h-31l-24-3-27-7-16-5-28-11-16-8-9-6-10-6-14-9-15-14-7-6v-2h-2v-2h-2l-4-5-2-1v-2l-3-1-7-8-12-14-8-16-4-6-11-23-8-21-7-24-6-22-3-22-1-24v-1020l-1-159 2-22 4-12 12-27 11-20 12-18 10-13 15-16 15-15 14-11 14-10 11-7 19-9 25-9 19-5zm2 70-17 3-18 6-25 13-14 10-10 9-10 10-13 18-10 15-7 15-2 9-1 174v965l1 39 2 28 3 26 4 22 8 26 7 19 12 23 9 12 9 10 6 7 10 8 12 8 24 12 25 10 21 6 18 3h31l18-2 26-6 20-7 25-12 12-7 14-11 11-11 11-14 10-16 10-18 9-20 11-27 8-16 7-12v-2l25 3 22 4 15 2h46l22-4 15-4 16-6 25-12 14-9 10-8 10-9 7-8 10-13 9-15 8-16 5-11 6-19 4-15 3-24v-17l-2-24-5-25-6-20-2-1-62-1-45-3-27-3-29-5-40-9-25-7-17-3h-18l-19 4-30 8-21 8-17 8-17 10-16 13-23 23-10 14-12 20-10 18-9 20-6 12-5 5-8 7-11 4-6 1-16-8-8-7-6-10-4-9 1-8 12-26 11-22 12-19 12-18 11-14 12-14 7-8 8-7 17-14 18-13 18-11 21-11 30-12 6-3-2-5-10-14-6-7-9-13-15-26-13-26-11-28-7-22-8-35-4-20v-24l5-35 5-20 6-15 5-8 10-5 9-2h8l13 4 8 6 4 5 2 6v24l-3 13-1 1-2 14v13l3 30 4 23 7 26 7 20 9 20 9 17 12 18 12 14 16 17 15 13 17 10 15 7 30 11 27 8 36 6 31 4 35 2 23-1 19-2 28-6 19-7 20-11 13-10 16-16 10-13 9-14 9-16 9-21 6-17 4-22 1-11v-22l-2-24-5-27-7-21-11-21-8-11-9-11-11-11-11-9-13-10-33-22-12-9-13-11-6-7 1-6 10-13 15-20 9-15 9-19 8-22 3-14 1-9-1-28-3-17-4-17-6-16-7-12-9-11-11-11-13-10-15-9-21-10-28-10-8-3h-4l-7 11-10 13-13 17-10 15-11 15-14 15-7 8-10 9-14 10-20 12-14 7-20 8-23 6-19 3h-24l-23-4-19-5-29-9-25-9-18-8-12-8-14-11-6-7-4-8v-6l7-14 11-12 9-5h10l32 15 29 12 19 7 22 6 14 3h17l15-3 20-7 16-8 13-10 10-9 8-8 7-8 13-16 12-18 9-16 12-22 9-20 6-17 2-11v-27l-3-22-5-19-7-20-8-15-9-12-7-8-14-11-16-10-23-11-18-6-16-3h-24l-23 6-30 10-22 8-8 1-7-8-8-13-9-15-13-22-11-16-9-11-10-10-13-10-15-9-17-8-13-4-14-3-8-1z" fill="#0A2646"/>
</svg>
